<?xml version="1.0" standalone="no"?>
<!DOCTYPE svg PUBLIC "-//W3C//DTD SVG 20010904//EN"
 "http://www.w3.org/TR/2001/REC-SVG-20010904/DTD/svg10.dtd">
<svg version="1.0" xmlns="http://www.w3.org/2000/svg"
 width="512.000000pt" height="512.000000pt" viewBox="0 0 512.000000 512.000000"
 preserveAspectRatio="xMidYMid meet">

<g transform="translate(0.000000,512.000000) scale(0.100000,-0.100000)"
fill="#000000" stroke="none">
<path d="M3635 5106 c-17 -7 -100 -71 -185 -143 l-154 -130 -106 35 c-250 81
-525 118 -809 109 -358 -12 -664 -88 -978 -243 -969 -477 -1499 -1552 -1288
-2610 48 -240 139 -497 186 -523 33 -19 74 -8 96 25 19 30 22 20 -56 245 -140
407 -158 847 -51 1270 211 840 902 1489 1762 1653 226 43 557 46 783 7 128
-23 315 -72 315 -82 0 -4 -65 -61 -144 -128 l-144 -121 -89 16 c-135 24 -403
29 -549 10 -183 -24 -354 -69 -381 -101 -26 -29 -28 -43 -12 -78 21 -46 50
-50 154 -22 141 39 247 55 390 62 135 6 325 -3 325 -16 0 -7 -374 -325 -424
-361 -19 -13 -1095 -192 -1105 -183 -16 13 203 196 346 290 117 76 139 99 127
136 -22 73 -71 75 -184 5 -168 -102 -344 -253 -466 -399 -63 -76 -65 -77 -121
-84 -71 -9 -125 -35 -153 -76 -35 -48 -40 -92 -24 -192 l15 -90 -40 -101 c-80
-205 -118 -393 -128 -626 -19 -473 133 -922 440 -1297 l59 -72 39 -243 c21
-133 37 -244 35 -246 -8 -8 -160 125 -261 229 -105 108 -191 213 -265 324 -42
64 -56 75 -95 75 -35 0 -60 -22 -70 -60 -5 -20 5 -43 46 -105 151 -233 398
-484 640 -651 l44 -30 35 -225 c23 -147 42 -238 55 -264 23 -45 71 -81 121
-91 35 -6 1793 266 1871 290 l41 13 159 -135 c87 -73 176 -142 198 -153 79
-37 144 -20 215 57 124 135 1167 1390 1182 1422 44 95 16 149 -150 290 l-129
111 23 87 c64 240 91 592 65 845 -10 97 -47 304 -66 374 -5 17 17 40 114 123
66 56 128 113 137 127 24 37 29 113 11 155 -8 19 -287 360 -620 756 -521 620
-612 724 -647 738 -48 19 -94 20 -135 2z m157 -231 l76 -89 -49 -44 c-56 -50
-65 -89 -27 -129 32 -34 68 -29 125 16 l50 40 80 -97 81 -97 -49 -43 c-56 -50
-65 -89 -27 -129 32 -34 68 -29 126 16 l49 39 81 -96 80 -97 -49 -43 c-56 -50
-65 -89 -27 -129 32 -34 73 -30 125 13 24 19 47 34 52 32 5 -2 43 -43 84 -93
l75 -90 -49 -46 c-56 -52 -64 -87 -27 -126 32 -35 76 -30 126 13 23 20 46 34
51 32 14 -5 151 -172 151 -184 0 -6 -41 -45 -91 -87 l-91 -77 -47 50 c-54 58
-87 65 -126 25 -40 -39 -31 -77 32 -146 l24 -26 -97 -82 -97 -82 -47 51 c-54
58 -86 65 -125 25 -36 -35 -32 -70 15 -126 l40 -47 -97 -82 -96 -82 -47 51
c-54 59 -86 66 -125 26 -36 -35 -32 -73 10 -122 19 -23 35 -46 35 -51 0 -10
-107 -102 -119 -102 -10 0 -925 769 -942 793 -11 14 -28 97 -49 232 -18 116
-39 225 -47 243 -33 69 -111 107 -197 96 -25 -4 -46 -4 -46 -1 0 4 122 108
183 156 17 14 23 11 62 -32 35 -39 49 -47 78 -47 26 0 41 7 56 26 28 36 26 67
-7 106 -57 68 -59 59 26 129 42 35 85 71 95 79 17 13 23 10 63 -33 36 -38 50
-47 78 -47 25 0 40 7 55 26 30 38 26 65 -19 121 l-40 51 96 79 96 80 46 -49
c54 -58 97 -65 131 -22 30 38 26 66 -19 122 l-39 50 92 76 c50 42 96 75 102
73 5 -2 44 -43 87 -92z m-1095 -1128 c19 -120 17 -127 -40 -127 -81 0 -125
-73 -79 -130 19 -23 69 -29 133 -15 16 4 29 3 29 -2 0 -7 17 -113 35 -215 4
-25 2 -27 -43 -34 -105 -15 -140 -65 -91 -129 21 -25 26 -27 92 -23 l71 3 17
-105 c25 -149 27 -138 -33 -146 -97 -13 -136 -86 -75 -138 18 -15 32 -17 88
-12 l65 6 17 -108 c24 -147 25 -139 -33 -147 -66 -9 -100 -36 -100 -81 0 -21
8 -42 21 -55 19 -19 28 -21 90 -15 38 4 69 4 69 -1 0 -4 9 -60 20 -123 11 -63
20 -116 20 -116 0 -1 -25 -5 -56 -9 -95 -12 -134 -76 -79 -131 23 -23 32 -25
92 -22 l67 3 17 -105 c25 -147 27 -136 -33 -144 -65 -9 -86 -20 -99 -53 -12
-32 4 -79 32 -94 11 -5 46 -7 82 -3 l63 6 18 -115 c10 -64 16 -120 12 -125 -3
-5 -28 -12 -56 -16 -62 -8 -90 -33 -90 -80 0 -51 40 -80 100 -71 25 3 52 8 61
11 13 4 19 -16 36 -118 13 -79 17 -125 11 -129 -6 -4 -31 -9 -56 -13 -78 -11
-115 -69 -77 -123 19 -28 52 -35 111 -24 27 5 51 8 53 5 2 -2 12 -54 22 -116
15 -96 15 -115 4 -124 -8 -6 -54 -16 -102 -23 -48 -7 -98 -15 -109 -18 -19 -4
-23 1 -29 39 -10 65 -24 94 -51 107 -35 16 -48 14 -79 -10 -26 -21 -27 -26
-23 -93 l3 -71 -105 -17 c-147 -24 -137 -26 -145 32 -9 66 -36 100 -81 100
-21 0 -42 -8 -55 -21 -19 -19 -21 -29 -15 -89 l6 -67 -100 -16 c-150 -26 -147
-26 -155 35 -13 90 -83 128 -134 74 -21 -23 -23 -31 -16 -90 3 -37 5 -66 3
-66 -2 0 -55 -9 -118 -20 -63 -11 -118 -20 -122 -20 -5 0 -8 12 -8 28 0 109
-75 168 -136 107 -23 -23 -25 -32 -22 -92 l3 -67 -114 -19 c-89 -15 -115 -16
-121 -7 -7 11 -40 201 -40 229 0 5 24 13 53 16 84 11 117 51 92 112 -16 39
-40 47 -114 38 l-58 -7 -17 106 c-23 150 -25 142 37 150 64 9 97 36 97 82 0
24 -8 39 -27 54 -25 19 -36 21 -90 15 -35 -4 -63 -5 -63 -3 0 2 -9 55 -19 118
-11 63 -17 118 -15 121 2 4 27 9 55 13 89 12 127 79 74 131 -26 26 -44 29
-112 16 -35 -7 -43 -5 -47 8 -12 41 -36 223 -31 231 4 6 20 10 36 10 105 0
153 94 75 145 -24 16 -68 15 -127 -1 -13 -3 -19 17 -34 117 -20 131 -18 139
33 139 72 0 116 51 96 109 -14 39 -50 52 -115 42 -30 -5 -55 -8 -56 -7 -1 1
-9 44 -17 96 -9 52 -18 107 -21 122 -4 25 -1 28 33 33 75 13 100 25 112 55 10
24 10 36 0 59 -16 39 -53 52 -115 40 -27 -5 -51 -7 -53 -4 -5 5 -40 204 -42
232 0 7 21 15 51 19 91 12 133 80 83 135 -17 19 -26 21 -90 16 l-70 -5 -17
106 c-24 148 -26 140 33 148 67 9 100 35 100 80 0 21 -8 42 -21 55 -19 19 -29
21 -89 15 l-68 -6 -11 63 c-6 34 -14 89 -18 123 l-6 61 122 20 121 20 6 -36
c16 -100 51 -136 111 -115 42 14 55 51 43 114 -6 29 -8 55 -6 57 5 6 239 43
244 39 1 -2 5 -21 8 -42 9 -61 23 -90 50 -103 35 -16 48 -14 79 10 26 21 27
26 23 93 l-3 71 105 17 c149 24 138 26 146 -33 9 -66 39 -102 84 -102 54 0 74
33 66 114 l-6 66 108 17 c149 23 140 24 148 -34 4 -28 15 -62 26 -75 26 -34
76 -34 108 0 21 22 22 30 16 89 l-6 65 32 6 c137 25 194 31 205 21 7 -6 20
-60 30 -119z m454 -703 c115 -96 209 -178 209 -181 0 -2 -16 -23 -35 -46 -59
-68 -39 -147 37 -147 24 0 40 10 72 45 23 25 45 45 50 45 4 0 48 -34 97 -76
93 -80 97 -89 54 -124 -9 -7 -23 -27 -31 -43 -13 -24 -13 -34 -3 -58 26 -65
86 -67 142 -4 22 25 44 45 49 45 5 0 49 -34 98 -76 98 -84 96 -76 41 -137 -50
-55 -21 -138 48 -137 30 1 43 10 88 62 l32 38 96 -81 95 -81 -40 -50 c-46 -58
-50 -89 -15 -123 38 -39 71 -33 126 24 l48 50 95 -80 95 -81 -39 -50 c-46 -58
-50 -89 -15 -123 39 -39 72 -33 125 24 l47 50 91 -76 c51 -42 92 -80 92 -85 0
-5 -34 -50 -76 -99 -79 -94 -88 -97 -125 -53 -37 45 -116 47 -139 4 -22 -41
-12 -71 39 -117 l50 -45 -81 -94 -80 -95 -42 34 c-54 45 -78 52 -114 33 -31
-16 -42 -34 -42 -69 1 -26 12 -41 62 -84 l38 -32 -81 -95 -80 -96 -50 40 c-56
44 -67 47 -108 25 -58 -30 -55 -75 9 -137 l49 -47 -80 -97 -81 -96 -27 25
c-65 60 -103 70 -140 40 -11 -10 -24 -33 -27 -51 -6 -31 -2 -37 45 -82 l51
-48 -76 -91 c-42 -50 -80 -91 -85 -91 -6 0 -83 61 -172 136 l-162 136 -17 116
c-24 165 -417 2643 -422 2665 -2 9 -2 17 0 17 3 0 99 -79 215 -176z m1506 0
c42 -200 55 -495 32 -702 -10 -95 -53 -320 -63 -330 -3 -2 -66 47 -141 109
-109 92 -135 118 -131 134 25 99 31 416 13 606 -2 21 18 43 128 136 72 61 135
110 140 109 6 -1 16 -29 22 -62z m-3777 -727 c61 -383 110 -701 110 -704 0
-14 -49 65 -98 158 -192 362 -247 780 -160 1199 19 91 23 101 30 75 5 -16 58
-344 118 -728z m3349 280 c0 -84 -4 -174 -7 -200 l-7 -48 -119 99 c-65 54
-118 103 -116 108 4 16 233 204 242 198 4 -3 8 -74 7 -157z"/>
<path d="M3551 4426 c-49 -18 -111 -74 -132 -120 -23 -50 -24 -134 -3 -184 63
-152 274 -185 379 -60 40 47 55 89 55 150 -1 154 -156 266 -299 214z m108
-151 c71 -36 45 -135 -34 -135 -98 0 -99 142 -2 149 4 1 21 -6 36 -14z"/>
<path d="M3467 3816 c-55 -20 -103 -56 -135 -101 -83 -117 -67 -274 38 -368
59 -54 102 -70 185 -71 150 0 262 105 273 256 6 87 -15 145 -76 210 -72 78
-189 108 -285 74z m138 -150 c40 -17 75 -68 75 -109 0 -43 -29 -96 -61 -112
-61 -32 -146 -10 -174 45 -33 63 -5 148 58 175 41 18 60 18 102 1z"/>
<path d="M3970 3752 c-36 -37 -38 -62 -7 -98 47 -54 127 -25 127 46 0 41 -19
65 -62 75 -22 6 -33 1 -58 -23z"/>
<path d="M4251 3663 c-11 -10 -24 -32 -27 -50 -13 -65 78 -111 126 -63 64 64
-29 170 -99 113z"/>
<path d="M4010 3458 c-44 -48 -11 -122 55 -122 66 0 99 74 55 122 -28 30 -82
30 -110 0z"/>
<path d="M2150 3441 c-73 -22 -139 -81 -167 -150 -8 -19 -15 -60 -15 -91 0
-144 105 -250 246 -250 117 0 210 69 242 179 55 185 -124 367 -306 312z m136
-172 c32 -30 39 -71 19 -112 -30 -63 -107 -77 -156 -28 -31 31 -39 83 -19 121
27 51 111 61 156 19z"/>
<path d="M1405 3326 c-87 -40 -135 -115 -135 -208 1 -130 100 -228 230 -228
247 0 320 332 96 436 -65 31 -126 31 -191 0z m134 -141 c48 -24 56 -81 16
-120 -34 -35 -86 -34 -114 1 -35 45 -25 96 24 122 27 15 41 15 74 -3z"/>
<path d="M1699 2720 c-114 -19 -225 -107 -277 -218 -23 -50 -27 -69 -27 -152
1 -84 4 -102 30 -155 60 -123 177 -204 309 -213 124 -8 220 31 305 123 37 41
42 51 37 78 -7 38 -39 67 -72 67 -13 0 -46 -20 -78 -48 -109 -95 -224 -97
-317 -3 -76 75 -88 174 -33 268 38 65 92 97 174 101 81 5 123 -13 190 -82 54
-56 96 -62 129 -20 28 36 26 64 -7 110 -53 72 -140 125 -237 143 -64 12 -60
12 -126 1z"/>
<path d="M2340 2287 c-14 -7 -31 -25 -40 -40 -13 -24 -13 -30 0 -54 34 -60
113 -59 134 0 22 61 -40 121 -94 94z"/>
<path d="M2615 2180 c-49 -19 -64 -82 -30 -120 24 -26 85 -27 108 -2 22 25 22
85 0 104 -24 21 -54 28 -78 18z"/>
<path d="M2383 1990 c-26 -11 -43 -40 -43 -74 0 -63 89 -90 129 -40 34 43 24
86 -26 112 -25 14 -30 14 -60 2z"/>
<path d="M1915 1807 c-62 -21 -97 -42 -137 -84 -113 -116 -111 -308 5 -421
118 -116 303 -117 420 -4 66 63 91 124 91 217 0 93 -25 154 -91 217 -73 71
-200 104 -288 75z m141 -156 c59 -27 88 -73 88 -137 0 -66 -34 -115 -99 -140
-39 -14 -52 -15 -87 -5 -137 41 -153 224 -25 282 52 23 72 23 123 0z"/>
<path d="M2536 1115 c-87 -31 -144 -100 -153 -187 -14 -140 84 -252 221 -252
132 1 226 95 226 226 -1 68 -27 125 -79 169 -65 57 -138 72 -215 44z m127
-167 c41 -48 7 -118 -58 -118 -59 0 -93 58 -64 111 22 42 89 46 122 7z"/>
<path d="M1641 984 c-12 -15 -21 -38 -21 -51 0 -32 42 -73 75 -73 35 0 75 42
75 78 0 65 -89 97 -129 46z"/>
<path d="M1927 889 c-46 -27 -41 -105 9 -128 35 -16 48 -14 78 10 51 40 23
129 -41 129 -16 0 -36 -5 -46 -11z"/>
<path d="M1690 688 c-27 -30 -26 -73 5 -103 28 -29 45 -31 84 -10 46 23 54 66
20 109 -27 34 -79 36 -109 4z"/>
<path d="M3471 2259 c-57 -11 -113 -49 -151 -101 -92 -126 -48 -296 95 -371
56 -30 164 -30 221 0 60 32 111 93 129 158 53 182 -105 350 -294 314z m118
-175 c60 -50 33 -150 -44 -170 -63 -16 -134 54 -120 118 17 75 104 103 164 52z"/>
<path d="M4005 1787 c-89 -30 -155 -85 -155 -129 0 -25 52 -78 77 -78 10 0 38
14 62 30 43 29 61 34 111 30 82 -7 137 -92 111 -172 -30 -90 -120 -121 -210
-74 -61 31 -71 32 -105 5 -36 -28 -36 -81 -1 -114 61 -56 179 -80 269 -55 147
41 237 209 192 362 -41 142 -216 239 -351 195z"/>
<path d="M3579 1227 c-57 -21 -97 -54 -126 -105 -60 -101 -26 -239 73 -302 60
-37 120 -46 190 -25 186 54 218 312 50 410 -54 32 -135 41 -187 22z m125 -167
c26 -25 25 -76 -2 -102 -45 -45 -125 -13 -125 51 0 70 75 100 127 51z"/>
</g>
</svg>
